<?xml version="1.0" standalone="no"?>
<!DOCTYPE svg PUBLIC "-//W3C//DTD SVG 20010904//EN"
 "http://www.w3.org/TR/2001/REC-SVG-20010904/DTD/svg10.dtd">
<svg version="1.0" xmlns="http://www.w3.org/2000/svg"
 width="300.000000pt" height="180.000000pt" viewBox="0 0 300.000000 180.000000"
 preserveAspectRatio="xMidYMid meet">
<metadata>
Created by potrace 1.10, written by Peter Selinger 2001-2011
</metadata>
<g transform="translate(0.000000,180.000000) scale(0.100000,-0.100000)"
fill="#ffffff" stroke="none">
<path d="M423 1358 c-17 -19 -21 -36 -21 -93 0 -38 2 -78 5 -88 7 -28 41 -39
137 -44 50 -2 93 -6 95 -9 3 -2 -29 -39 -71 -82 -115 -117 -115 -118 -22 -209
58 -56 69 -60 138 -41 79 21 127 -17 129 -102 1 -55 -35 -90 -91 -90 -46 1
-63 14 -90 66 -11 22 -26 45 -34 51 -7 6 -49 10 -97 9 -103 -2 -115 -13 -108
-97 15 -169 184 -295 369 -274 87 10 143 37 201 98 62 65 87 118 94 205 10
124 -41 254 -128 323 l-40 31 80 84 c44 45 83 95 87 109 9 38 -15 137 -39 158
-17 15 -47 17 -296 17 -275 0 -278 0 -298 -22z m367 -244 c-127 -126 -235
-230 -239 -232 -4 -1 -17 8 -29 21 l-23 24 176 168 c96 92 175 170 175 174 0
3 -93 6 -206 6 l-207 0 -2 32 -3 33 292 2 c160 2 292 2 294 2 2 -1 -101 -104
-228 -230z m86 -63 c-80 -80 -146 -145 -146 -147 0 -1 17 -4 38 -8 21 -3 54
-16 72 -28 97 -66 107 -265 17 -332 -130 -96 -304 -35 -332 117 l-7 37 36 0
c30 0 36 -4 36 -21 0 -32 30 -76 65 -95 44 -24 127 -15 160 16 54 51 51 161
-6 216 -26 25 -38 29 -89 29 -41 0 -63 -5 -77 -17 -19 -17 -21 -17 -43 7 l-24
26 219 220 220 219 3 -47 3 -47 -145 -145z m-136 154 l-34 -36 -135 3 -134 3
-2 33 -3 32 171 0 171 0 -34 -35z m158 -248 c39 -29 63 -59 92 -117 46 -88 35
-260 -19 -330 l-20 -25 -24 23 -25 23 25 46 c61 108 12 288 -92 337 l-37 18
23 24 c28 30 37 30 77 1z m-408 -291 c0 -39 29 -109 58 -140 65 -69 195 -88
285 -43 l46 24 26 -27 27 -28 -57 -27 c-111 -55 -253 -42 -347 30 -53 39 -93
113 -104 188 l-6 47 36 0 c31 0 36 -3 36 -24z"/>
<path d="M1583 1369 c-132 -25 -224 -115 -262 -257 -15 -55 -16 -437 -1 -492
32 -120 118 -217 218 -246 74 -22 189 -15 259 16 87 37 160 131 183 235 14 64
14 407 -1 475 -33 154 -148 261 -294 272 -33 3 -79 1 -102 -3z m179 -49 c61
-23 125 -83 157 -148 27 -54 40 -154 40 -312 1 -271 -44 -378 -184 -442 -70
-32 -190 -32 -256 0 -92 45 -151 128 -169 238 -13 78 -13 357 0 425 30 159
143 257 297 258 39 1 82 -7 115 -19z"/>
<path d="M1585 1301 c-84 -22 -134 -62 -178 -145 -21 -39 -22 -52 -22 -291 l0
-250 29 -53 c50 -90 129 -135 237 -134 69 0 142 24 166 54 11 12 9 18 -6 32
-18 16 -21 16 -59 -4 -22 -11 -56 -23 -75 -27 -53 -8 -137 21 -175 60 l-33 34
149 274 c82 151 148 275 147 277 -2 2 -18 0 -36 -3 -33 -6 -39 -16 -153 -233
-65 -125 -122 -231 -126 -235 -11 -13 -23 209 -18 322 7 139 42 207 130 252
72 37 181 16 237 -45 30 -32 42 -1 -138 -335 -72 -134 -130 -246 -127 -248 2
-2 19 0 37 4 30 8 41 25 150 228 65 121 118 226 119 233 0 6 5 12 10 12 6 0
10 -77 10 -212 0 -205 -1 -215 -25 -265 l-24 -53 22 -15 c20 -14 23 -14 39 6
38 46 48 114 48 324 0 224 -8 272 -60 342 -54 73 -185 118 -275 94z"/>
<path d="M1600 1207 c-19 -7 -44 -17 -55 -24 -20 -12 -20 -12 1 -33 21 -21 23
-21 54 -5 20 10 45 15 64 11 17 -2 48 -2 70 2 36 7 37 8 20 24 -18 15 -87 39
-109 37 -5 0 -26 -6 -45 -12z"/>
<path d="M1486 1109 c-14 -34 -28 -349 -15 -349 3 0 17 26 32 58 24 50 27 68
25 147 -1 52 3 99 10 111 9 18 7 25 -13 44 l-25 23 -14 -34z"/>
<path d="M1625 1121 c-41 -17 -59 -50 -63 -117 -2 -35 -2 -64 2 -64 5 0 96
174 96 185 0 7 -11 5 -35 -4z"/>
<path d="M1798 916 c-24 -49 -28 -69 -28 -147 0 -97 -18 -152 -60 -177 -11 -7
-55 -14 -96 -16 -42 -2 -78 -7 -81 -9 -3 -3 10 -15 28 -26 66 -41 171 -22 222
38 39 47 48 95 45 252 l-3 141 -27 -56z"/>
<path d="M1687 708 c-26 -50 -45 -94 -42 -96 3 -3 18 -1 33 4 38 13 64 70 60
133 l-3 50 -48 -91z"/>
<path d="M2378 1349 c-10 -5 -59 -65 -110 -132 -234 -309 -225 -296 -212 -331
10 -27 152 -127 188 -133 l35 -5 3 -170 c4 -212 1 -208 147 -208 154 0 141
-45 141 496 0 530 7 494 -103 494 -40 0 -80 -5 -89 -11z m160 -474 c1 -247 1
-454 -2 -460 -2 -6 -45 -9 -110 -7 l-106 3 -2 227 -3 227 -30 -42 c-16 -24
-34 -43 -38 -43 -10 0 -167 119 -167 126 0 6 274 369 304 402 18 20 28 22 86
20 l65 -3 3 -450z"/>
<path d="M2375 1247 c-16 -23 -81 -109 -143 -191 -104 -137 -112 -149 -95
-162 10 -7 23 -14 28 -14 6 0 48 53 95 117 l85 117 3 -337 2 -337 30 0 30 0 0
425 c0 234 -1 425 -2 425 -2 0 -16 -19 -33 -43z"/>
<path d="M2445 865 l0 -425 30 0 30 0 -3 425 -2 425 -28 0 -27 0 0 -425z"/>
<path d="M2257 936 c-58 -78 -59 -79 -40 -98 19 -19 20 -18 62 36 37 48 42 60
39 98 l-3 44 -58 -80z"/>
</g>
</svg>
